# AST/ASF file generated using VICON BodyLanguage
# -----------------------------------------------
:version 1.10
:name VICON
:units
  mass 1.0
  length 0.45
  angle deg
:documentation
   .ast/.asf automatically generated from VICON data using
   VICON BodyBuilder and BodyLanguage model FoxedUp or BRILLIANT.MOD
:root
   order TX TY TZ RX RY RZ
   axis XYZ
   position 0 0 0  
   orientation 0 0 0 
:bonedata
  begin
     id 1 
     name lhipjoint
     direction 0.630305 -0.712092 0.309259 
     length 2.29033 
     axis 0 0 0  XYZ
  end
  begin
     id 2 
     name lfemur
     direction 0.34202 -0.939693 0  
     length 6.43538  
     axis 0 0 20  XYZ
    dof rx ry rz
    limits (-160.0 20.0)
           (-70.0 70.0)
           (-60.0 70.0)
  end
  begin
     id 3 
     name ltibia
     direction 0.34202 -0.939693 0   
     length 7.43097   
     axis 0 0 20   XYZ
    dof rx
    limits (-10.0 170.0)
  end
  begin
     id 4 
     name lfoot
     direction 0.0334653 -0.0919451 0.995202   
     length 1.78438   
     axis -90 7.62852e-016 20   XYZ
    dof rx rz
    limits (-45.0 90.0)
           (-70.0 20.0)
  end
  begin
     id 5 
     name ltoes
     direction 1.53535e-011 -4.21933e-011 1   
     length 0.90832   
     axis -90 7.62852e-016 20   XYZ
    dof rx
    limits (-90.0 20.0)
  end
  begin
     id 6 
     name rhipjoint
     direction -0.682059 -0.67077 0.291312   
     length 2.43143  
     axis 0 0 0  XYZ 
  end
  begin
     id 7 
     name rfemur
     direction -0.34202 -0.939693 0   
     length 6.63488   
     axis 0 0 -20   XYZ
    dof rx ry rz
    limits (-160.0 20.0)
           (-70.0 70.0)
           (-70.0 60.0)
  end
  begin
     id 8 
     name rtibia
     direction -0.34202 -0.939693 0   
     length 6.86532   
     axis 0 0 -20   XYZ
    dof rx
    limits (-10.0 170.0)
 end
 begin
     id 9 
     name rfoot
     direction -0.105199 -0.289033 0.951521   
     length 1.77126  
     axis -90 -7.62852e-016 -20   XYZ
    dof rx rz
    limits (-45.0 90.0)
           (-20.0 70.0)
  end
  begin
     id 10 
     name rtoes
     direction -1.53551e-011 -4.21978e-011 1   
     length 0.889273   
     axis -90 -7.62852e-016 -20   XYZ
    dof rx
    limits (-90.0 20.0)
  end
  begin
     id 11 
     name lowerback
     direction -0.0514305 0.998089 0.034245   
     length 2.02077   
     axis 0 0 0   XYZ
    dof rx ry rz
    limits (-20.0 45.0)
           (-30.0 30.0)
           (-30.0 30.0)
  end
  begin
     id 12 
     name upperback
     direction 0.0203189 0.999449 -0.0262315   
     length 2.01413   
     axis 0 0 0   XYZ
    dof rx ry rz
    limits (-20.0 45.0)
           (-30.0 30.0)
           (-30.0 30.0)
  end
  begin
     id 13 
     name thorax
     direction 0.0452736 0.998142 -0.0407729   
     length 2.02986   
     axis 0 0 0   XYZ
    dof rx ry rz
    limits (-20.0 45.0)
           (-30.0 30.0)
           (-30.0 30.0)
  end
  begin
     id 14 
     name lowerneck
     direction -0.0180464 0.999645 -0.0195774   
     length 1.59034   
     axis 0 0 0   XYZ
    dof rx ry rz
    limits (-20.0 45.0)
           (-30.0 30.0)
           (-30.0 30.0)
  end
  begin
     id 15 
     name upperneck
     direction 0.0732272 0.979935 -0.18538   
     length 1.57486   
     axis 0 0 0   XYZ
    dof rx ry rz
    limits (-20.0 45.0)
           (-30.0 30.0)
           (-30.0 30.0)
  end
  begin
     id 16
     name head
     direction 0.0252963 0.997909 -0.059472  
     length 1.60334  
     axis 0 0 0   XYZ
    dof rx ry rz
    limits (-20.0 45.0)
           (-30.0 30.0)
           (-30.0 30.0)
  end
  begin
     id 17 
     name lclavicle
     direction 0.943819 0.330449 0.00315172  
     length 3.50322  
     axis 0 0 0   XYZ
    dof ry rz
    limits (-20.0 10.0)
           (0.0 20.0)
  end
  begin
     id 18 
     name lhumerus
     direction 1 -4.48949e-011 2.22502e-028   
     length 4.63208   
     axis 180 -30 -90   XYZ
    dof rx ry rz
    limits (-60.0 90.0)
           (-90.0 90.0)
           (-90.0 90.0)
  end
  begin
     id 19
     name lradius
     direction 1 -4.48967e-011 -4.10197e-027   
     length 3.41924   
     axis 180 -30 -90   XYZ
    dof rx
    limits (-10.0 170.0)
  end
  begin
     id 20
     name lwrist
     direction 1 -4.48987e-011 -1.24264e-027   
     length 1.70962   
     axis 2.50585e-015 90 90   XYZ
    dof ry
    limits (-180.0 0.0)
 end
  begin
     id 21 
     name lhand
     direction 1 -4.48983e-011 -2.48528e-027   
     length 0.62537   
     axis 1.58582e-015 90 90   XYZ
    dof rx rz
    limits (-90.0 90.0)
           (-45.0 45.0)
  end
  begin
     id 22 
     name lfingers
     direction 1 -4.48896e-011 -4.97056e-027   
     length 0.50419   
     axis 3.17164e-015 90 90   XYZ
    dof rx
    limits (0.0 90.0)
  end
  begin
     id 23
     name lthumb
     direction 0.707107 -6.34803e-011 0.707107   
     length 0.723919   
     axis -90 45 2.85299e-015   XYZ
    dof rx rz
    limits (-45.0 45.0)
           (-45.0 45.0)
  end
  begin
     id 24 
     name rclavicle
     direction -0.964499 0.260664 -0.0423695   
     length 3.91997  
     axis 0 0 0   XYZ 
    dof ry rz
    limits (-10.0 20.0)
           (-20.0 0.0)
  end
  begin
     id 25 
     name rhumerus
     direction -1 -4.48957e-011 -1.98656e-027  
     length 4.4064   
     axis 180 30 90   XYZ
    dof rx ry rz
    limits (-90.0 60.0)
           (-90.0 90.0)
           (-90.0 90.0)
  end
  begin
     id 26 
     name rradius
     direction -1 -4.48968e-011 1.96972e-027   
     length 3.44675   
     axis 180 30 90   XYZ
    dof rx
    limits (-10.0 170.0)
  end
  begin
     id 27 
     name rwrist
     direction -1 -4.48974e-011 -1.24264e-027   
     length 1.72338   
     axis 2.50585e-015 -90 -90   XYZ
    dof ry
    limits (-180.0 0.0)
  end
  begin
     id 28
     name rhand
     direction -1 -4.48901e-011 -2.48528e-027   
     length 0.513674   
     axis 1.58582e-015 -90 -90   XYZ
    dof rx rz
    limits (-90.0 90.0)
           (-45.0 45.0)
  end
  begin
     id 29
     name rfingers
     direction -1 -4.48946e-011 -4.97056e-027   
     length 0.414137   
     axis 3.17164e-015 -90 -90   XYZ
    dof rx
    limits (0.0 90.0)
  end
  begin
     id 30
     name rthumb
     direction -0.707107 -6.34859e-011 0.707107   
     length 0.59462   
     axis -90 -45 -2.85299e-015   XYZ
    dof rx rz
    limits (-45.0 45.0)
           (-45.0 45.0)
  end
:hierarchy
  begin
    root lhipjoint rhipjoint lowerback
    lhipjoint lfemur
    lfemur ltibia
    ltibia lfoot
    lfoot ltoes
    rhipjoint rfemur
    rfemur rtibia
    rtibia rfoot
    rfoot rtoes
    lowerback upperback
    upperback thorax
    thorax lowerneck lclavicle rclavicle
    lowerneck upperneck
    upperneck head
    lclavicle lhumerus
    lhumerus lradius
    lradius lwrist
    lwrist lhand lthumb
    lhand lfingers
    rclavicle rhumerus
    rhumerus rradius
    rradius rwrist
    rwrist rhand rthumb
    rhand rfingers
  end

#!OML:ASF E:\inclinewalkrobotboard\Project 1\Capture day 1\Session 1\subject1.ASF
:FULLY-SPECIFIED
:DEGREES
64
root 9.97884 16.4523 5.87104 -155.116 -82.1468 -193.286
lowerback -7.831 1.48337 -7.0219
upperback -1.01186 2.51587 0.787487
thorax 2.99976 1.15921 5.0228
lowerneck -5.4262 4.2789 -2.2782
upperneck 9.88866 5.56116 3.35987
head 4.04101 2.79146 1.8074
rclavicle 1.84373e-014 1.61016e-014
rhumerus -43.7739 -7.43557 -91.9278
rradius 98.2325
rwrist -2.51592
rhand -23.3929 -31.8844
rfingers 7.12502
rthumb 3.06366 -61.8421
lclavicle 1.84373e-014 1.61016e-014
lhumerus -38.6305 8.30153 84.8307
lradius 92.2168
lwrist 6.14493
lhand -57.3323 -40.3678
lfingers 7.12502
lthumb -29.6087 -12.7104
rfemur -5.28325 7.16089 6.64138
rtibia 3.94565
rfoot -13.1458 -15.8696
rtoes -37.2677
lfemur -8.19545 -13.0003 -10.5997
ltibia 7.41037
lfoot -16.6405 13.7881
ltoes -67.1528
65
root 9.97447 16.4536 5.86865 -156.324 -82.2019 -191.93
lowerback -7.9355 1.4542 -6.86843
upperback -1.05459 2.46656 0.870304
thorax 3.023 1.13595 5.02186
lowerneck -5.33954 4.29602 -2.10152
upperneck 9.84317 5.59112 3.11951
head 4.018 2.80148 1.69272
rclavicle -1.50082e-014 -9.14409e-015
rhumerus -43.765 -7.20134 -91.9355
rradius 98.3005
rwrist -2.58337
rhand -23.1648 -31.7902
rfingers 7.12502
rthumb 3.284 -61.7447
lclavicle -1.50082e-014 -9.14409e-015
lhumerus -38.6966 8.45986 84.7676
lradius 92.4952
lwrist 6.3797
lhand -57.2577 -40.5791
lfingers 7.12502
lthumb -29.5375 -12.9091
rfemur -5.47906 7.1316 6.86254
rtibia 4.04439
rfoot -13.1487 -15.8839
rtoes -37.4104
lfemur -8.42704 -12.9265 -10.3025
ltibia 7.56492
lfoot -16.6464 13.7773
ltoes -67.1903
66
root 9.97013 16.4558 5.8647 -159.381 -82.3452 -188.712
lowerback -8.03958 1.47196 -6.46929
upperback -1.09742 2.45526 1.03625
thorax 3.0474 1.1341 4.97273
lowerneck -5.19175 4.29429 -1.957
upperneck 9.7033 5.60454 2.83501
head 3.95043 2.80086 1.56379
rclavicle -6.33626e-015 1.21259e-014
rhumerus -43.8063 -6.9885 -91.9254
rradius 98.4062
rwrist -2.63053
rhand -23.3647 -31.6653
rfingers 7.12502
rthumb 3.0909 -61.6227
lclavicle -6.33626e-015 1.21259e-014
lhumerus -38.7068 8.61996 84.821
lradius 92.533
lwrist 6.53601
lhand -57.1655 -40.8313
lfingers 7.12502
lthumb -29.4495 -13.1458
rfemur -5.64791 7.22156 7.4182
rtibia 4.10076
rfoot -13.0405 -15.9956
rtoes -38.1031
lfemur -8.62234 -12.9511 -9.69604
ltibia 7.6492
lfoot -16.6299 13.9778
ltoes -67.3579
67
root 9.96274 16.4575 5.86007 -160.641 -82.3526 -187.479
lowerback -7.99367 1.52767 -6.30526
upperback -1.10168 2.51199 1.04089
thorax 3.01677 1.16549 4.88812
lowerneck -5.14594 4.27858 -1.95473
upperneck 9.65688 5.57742 2.89245
head 3.92411 2.79029 1.57836
rclavicle 5.46658e-016 -3.47873e-014
rhumerus -43.8578 -6.95924 -92.039
rradius 98.469
rwrist -2.46458
rhand -23.7234 -31.6247
rfingers 7.12502
rthumb 2.74444 -61.5868
lclavicle 5.46658e-016 -3.47873e-014
lhumerus -38.7019 8.64601 84.8145
lradius 92.2826
lwrist 6.49138
lhand -57.2287 -41.2629
lfingers 7.12502
lthumb -29.5098 -13.588
rfemur -5.56973 7.34671 7.64949
rtibia 4.05071
rfoot -12.9435 -16.0912
rtoes -38.6155
lfemur -8.55171 -12.9661 -9.50645
ltibia 7.66622
lfoot -16.8677 13.8433
ltoes -67.0052
68
root 9.95402 16.4587 5.85824 -159.877 -82.2712 -188.349
lowerback -7.87845 1.58612 -6.38859
upperback -1.09165 2.59358 0.936873
thorax 2.95356 1.2079 4.82893
lowerneck -5.13913 4.21761 -1.99612
upperneck 9.64058 5.47952 3.08829
head 3.9134 2.74924 1.64578
rclavicle -1.04113e-014 4.96962e-015
rhumerus -43.9249 -7.05327 -92.1526
rradius 98.5387
rwrist -2.23999
rhand -23.5528 -31.4983
rfingers 7.12502
rthumb 2.9092 -61.4582
lclavicle -1.04113e-014 4.96962e-015
lhumerus -38.6954 8.54618 84.738
lradius 92.1294
lwrist 6.44374
lhand -57.297 -41.5494
lfingers 7.12502
lthumb -29.575 -13.886
rfemur -5.41334 7.35949 7.50707
rtibia 3.99132
rfoot -13.0449 -16.0235
rtoes -37.6743
lfemur -8.40799 -13.0743 -9.70853
ltibia 7.71297
lfoot -17.2235 13.5894
ltoes -66.451
69
root 9.94325 16.4586 5.85925 -158.711 -82.1882 -189.633
lowerback -7.79603 1.62654 -6.54325
upperback -1.05303 2.65897 0.87688
thorax 2.93524 1.2391 4.85667
lowerneck -5.24523 4.13918 -2.0553
upperneck 9.73379 5.37768 3.10759
head 3.96857 2.69752 1.66451
rclavicle -3.4514e-014 4.17448e-015
rhumerus -43.9394 -7.03912 -92.0933
rradius 98.625
rwrist -2.36447
rhand -23.1124 -31.4192
rfingers 7.12502
rthumb 3.33452 -61.3729
lclavicle -3.4514e-014 4.17448e-015
lhumerus -38.6487 8.51094 84.7385
lradius 92.0991
lwrist 6.47444
lhand -57.2426 -41.6295
lfingers 7.12502
lthumb -29.5231 -13.9569
rfemur -5.25367 7.22743 7.25788
rtibia 3.96016
rfoot -13.1936 -15.7796
rtoes -36.3457
lfemur -8.24286 -13.341 -10.0229
ltibia 7.75362
lfoot -17.3477 13.7747
ltoes -66.4513
70
root 9.93474 16.4588 5.85707 -158.378 -82.128 -190.042
lowerback -7.7252 1.62886 -6.62225
upperback -1.02697 2.66531 0.876906
thorax 2.91846 1.24172 4.89942
lowerneck -5.38222 4.10735 -2.1107
upperneck 9.86689 5.3449 3.06006
head 4.04403 2.6768 1.66549
rclavicle -6.4605e-015 -7.35503e-015
rhumerus -43.8563 -6.80042 -92.0423
rradius 98.6412
rwrist -2.70938
rhand -23.1063 -31.4529
rfingers 7.12502
rthumb 3.3404 -61.4065
lclavicle -6.4605e-015 -7.35503e-015
lhumerus -38.6133 8.59947 84.7247
lradius 92.1439
lwrist 6.50679
lhand -57.1611 -41.536
lfingers 7.12502
lthumb -29.4453 -13.8497
rfemur -5.15315 7.30987 7.1865
rtibia 3.95559
rfoot -13.2643 -15.7626
rtoes -35.9064
lfemur -8.12522 -13.3507 -10.1558
ltibia 7.76977
lfoot -17.0774 14.1778
ltoes -66.9943
71
root 9.92908 16.4591 5.85208 -158.378 -82.0801 -190.045
lowerback -7.67993 1.57682 -6.71014
upperback -1.03276 2.59805 0.939337
thorax 2.88907 1.20851 5.00645
lowerneck -5.47727 4.14363 -2.32119
upperneck 9.95129 5.40075 3.19024
head 4.08234 2.70243 1.75451
rclavicle -1.95057e-014 3.37934e-015
rhumerus -43.7618 -6.41715 -92.068
rradius 98.6227
rwrist -2.86494
rhand -23.5062 -31.4675
rfingers 7.12502
rthumb 2.95425 -61.4268
lclavicle -1.95057e-014 3.37934e-015
lhumerus -38.6603 8.81661 84.6883
lradius 92.3343
lwrist 6.51202
lhand -57.1124 -41.2712
lfingers 7.12502
lthumb -29.3988 -13.5768
rfemur -5.13689 7.54059 7.20825
rtibia 3.95488
rfoot -13.2971 -15.9727
rtoes -35.8958
lfemur -8.1139 -13.1779 -10.1626
ltibia 7.79849
lfoot -16.6144 14.5976
ltoes -67.6747
72
root 9.92438 16.4584 5.84811 -158.358 -82.0356 -189.988
lowerback -7.73008 1.53335 -6.81824
upperback -1.05642 2.54857 1.0279
thorax 2.89007 1.18287 5.15768
lowerneck -5.50482 4.19151 -2.56447
upperneck 9.92956 5.4768 3.32184
head 4.06755 2.73765 1.84538
rclavicle 2.12203e-014 1.53064e-014
rhumerus -43.7077 -6.19883 -92.0674
rradius 98.6675
rwrist -2.79335
rhand -23.7115 -31.4822
rfingers 7.12502
rthumb 2.75596 -61.4441
lclavicle 2.12203e-014 1.53064e-014
lhumerus -38.7517 9.10019 84.7143
lradius 92.3944
lwrist 6.35687
lhand -57.1785 -40.9705
lfingers 7.12502
lthumb -29.4619 -13.2871
rfemur -5.23134 7.55087 7.20049
rtibia 3.97799
rfoot -13.2932 -16.0166
rtoes -35.8868
lfemur -8.21405 -13.1169 -10.1302
ltibia 7.86769
lfoot -16.5177 14.7158
ltoes -67.8036
73
root 9.92036 16.4586 5.84554 -159.028 -82.0472 -189.16
lowerback -7.85809 1.56124 -6.7179
upperback -1.10537 2.58292 1.04176
thorax 2.90945 1.20088 5.12275
lowerneck -5.46861 4.15968 -2.47339
upperneck 9.8952 5.42656 3.30594
head 4.05265 2.71556 1.81936
rclavicle 1.00386e-014 1.25234e-014
rhumerus -43.705 -6.26119 -92.1128
rradius 98.7367
rwrist -2.76689
rhand -23.9587 -31.2932
rfingers 7.12502
rthumb 2.51727 -61.2581
lclavicle 1.00386e-014 1.25234e-014
lhumerus -38.7702 9.19653 84.6965
lradius 92.2219
lwrist 6.06519
lhand -57.325 -41.0015
lfingers 7.12502
lthumb -29.6017 -13.3429
rfemur -5.44084 7.33264 7.30084
rtibia 4.06445
rfoot -13.2536 -15.8538
rtoes -36.0091
lfemur -8.44836 -12.9666 -9.92935
ltibia 8.00404
lfoot -16.5105 14.6553
ltoes -67.8278
74
root 9.91448 16.4597 5.84384 -159.708 -82.0669 -188.387
lowerback -7.93561 1.60983 -6.56313
upperback -1.13864 2.63918 0.999632
thorax 2.9194 1.23064 4.99862
lowerneck -5.37832 4.12534 -2.26975
upperneck 9.82588 5.36703 3.23741
head 4.0191 2.69047 1.75252
rclavicle 1.52567e-014 3.57812e-015
rhumerus -43.7218 -6.33849 -92.2029
rradius 98.7808
rwrist -2.82209
rhand -24.3083 -31.2866
rfingers 7.12502
rthumb 2.17963 -61.2552
lclavicle 1.52567e-014 3.57812e-015
lhumerus -38.7107 9.09758 84.6296
lradius 92.2111
lwrist 5.91961
lhand -57.366 -41.1105
lfingers 7.12502
lthumb -29.6409 -13.4588
rfemur -5.56155 7.19486 7.41311
rtibia 4.13532
rfoot -13.1533 -15.7746
rtoes -36.6627
lfemur -8.59262 -12.7608 -9.77503
ltibia 8.11001
lfoot -16.3194 14.7405
ltoes -68.1201
75
root 9.9061 16.4578 5.84342 -159.144 -81.9848 -189.038
lowerback -7.89011 1.63014 -6.67088
upperback -1.11104 2.67517 0.956746
thorax 2.91514 1.24727 5.01645
lowerneck -5.43594 4.07575 -2.22001
upperneck 9.88605 5.2965 3.22528
head 4.05599 2.65667 1.74031
rclavicle -2.02263e-014 -1.23246e-014
rhumerus -43.688 -6.30816 -92.2533
rradius 98.8248
rwrist -2.87135
rhand -23.7184 -30.8294
rfingers 7.12502
rthumb 2.74935 -60.7915
lclavicle -2.02263e-014 -1.23246e-014
lhumerus -38.6619 8.95565 84.5833
lradius 92.4289
lwrist 6.06324
lhand -57.3652 -40.6622
lfingers 7.12502
lthumb -29.6401 -13.0103
rfemur -5.45141 7.09883 7.30124
rtibia 4.13135
rfoot -13.0448 -15.6917
rtoes -37.3588
lfemur -8.42636 -12.6531 -9.96431
ltibia 8.08049
lfoot -16.3423 14.6711
ltoes -68.1167
76
root 9.89543 16.4528 5.84412 -157.317 -81.8332 -191.011
lowerback -7.83192 1.62245 -6.99029
upperback -1.06871 2.6926 0.874823
thorax 2.91367 1.25203 5.11092
lowerneck -5.40308 4.07371 -2.18216
upperneck 9.8627 5.29284 3.19666
head 4.04294 2.6549 1.72204
rclavicle -9.26834e-015 1.92821e-014
rhumerus -43.6362 -6.21166 -92.3412
rradius 98.8131
rwrist -3.00176
rhand -23.6906 -30.6742
rfingers 7.12502
rthumb 2.77613 -60.6359
lclavicle -9.26834e-015 1.92821e-014
lhumerus -38.6695 8.8894 84.4969
lradius 92.4688
lwrist 6.29072
lhand -57.3893 -40.3294
lfingers 7.12502
lthumb -29.6631 -12.6817
rfemur -5.24522 6.86783 6.9379
rtibia 4.07228
rfoot -13.0967 -15.3736
rtoes -37.0159
lfemur -8.16615 -12.6721 -10.4383
ltibia 8.02978
lfoot -16.2578 14.8219
ltoes -68.357
77
root 9.88716 16.4507 5.84334 -156.832 -81.8029 -191.46
lowerback -7.89779 1.60382 -7.01765
upperback -1.08805 2.67563 0.81002
thorax 2.93446 1.24271 5.0592
lowerneck -5.36961 4.12581 -2.09978
upperneck 9.83619 5.35547 3.19035
head 4.02712 2.68857 1.70634
rclavicle -8.94531e-016 2.18663e-015
rhumerus -43.6027 -6.11956 -92.4709
rradius 98.8008
rwrist -2.9556
rhand -23.543 -30.8661
rfingers 7.12502
rthumb 2.9187 -60.8258
lclavicle -8.94531e-016 2.18663e-015
lhumerus -38.7164 8.87511 84.3156
lradius 92.319
lwrist 6.43186
lhand -57.3453 -40.4925
lfingers 7.12502
lthumb -29.6212 -12.8373
rfemur -5.2385 6.73562 6.84331
rtibia 4.0447
rfoot -13.1727 -15.1816
rtoes -36.5389
lfemur -8.20826 -12.6955 -10.5521
ltibia 8.11094
lfoot -15.7992 15.3677
ltoes -69.1165
78
root 9.88515 16.4527 5.83944 -158.651 -81.9154 -189.51
lowerback -7.95569 1.60408 -6.71895
upperback -1.13962 2.65051 0.854925
thorax 2.9279 1.23445 4.93664
lowerneck -5.27532 4.09902 -2.03224
upperneck 9.6614 5.31519 3.19561
head 3.94908 2.67237 1.68607
rclavicle 6.75868e-015 -6.16232e-015
rhumerus -43.5591 -6.03763 -92.5516
rradius 98.8473
rwrist -2.87013
rhand -23.3698 -31.1742
rfingers 7.12502
rthumb 3.08595 -61.1316
lclavicle 6.75868e-015 -6.16232e-015
lhumerus -38.7321 8.89874 84.2084
lradius 92.2697
lwrist 6.4456
lhand -57.2539 -40.4619
lfingers 7.12502
lthumb -29.5339 -12.7912
rfemur -5.3608 6.89196 7.22261
rtibia 4.06895
rfoot -13.1718 -15.4196
rtoes -36.5611
lfemur -8.42068 -12.6207 -10.1314
ltibia 8.24737
lfoot -15.5704 15.5874
ltoes -69.4572
